<svg width="16" height="16" viewBox="0 0 16 16" fill="none" xmlns="http://www.w3.org/2000/svg">
<path fill-rule="evenodd" clip-rule="evenodd" d="M12.4713 3.52864C12.7317 3.78899 12.7317 4.2111 12.4713 4.47145L4.47132 12.4714C4.21097 12.7318 3.78886 12.7318 3.52851 12.4714C3.26816 12.2111 3.26816 11.789 3.52851 11.5286L11.5285 3.52864C11.7889 3.26829 12.211 3.26829 12.4713 3.52864Z" fill="url(#paint0_linear_6577_21459)"/>
<path fill-rule="evenodd" clip-rule="evenodd" d="M3.52851 3.52864C3.78886 3.26829 4.21097 3.26829 4.47132 3.52864L12.4713 11.5286C12.7317 11.789 12.7317 12.2111 12.4713 12.4714C12.211 12.7318 11.7889 12.7318 11.5285 12.4714L3.52851 4.47145C3.26816 4.2111 3.26816 3.78899 3.52851 3.52864Z" fill="url(#paint1_linear_6577_21459)"/>
<defs>
<linearGradient id="paint0_linear_6577_21459" x1="7.99192" y1="-6.58329" x2="-28.1341" y2="19.925" gradientUnits="userSpaceOnUse">
<stop stop-color="#F83600"/>
<stop offset="1" stop-color="#F9D423"/>
</linearGradient>
<linearGradient id="paint1_linear_6577_21459" x1="7.99192" y1="-6.58329" x2="-28.1341" y2="19.925" gradientUnits="userSpaceOnUse">
<stop stop-color="#F83600"/>
<stop offset="1" stop-color="#F9D423"/>
</linearGradient>
</defs>
</svg>
