<svg width="13" height="11" viewBox="0 0 13 11" fill="none" xmlns="http://www.w3.org/2000/svg">
<path fill-rule="evenodd" clip-rule="evenodd" d="M9.14642 0.646447C9.19435 0.598509 9.2496 0.562341 9.30857 0.537941L9.8535 0.64642L9.85398 0.646909L12.3534 3.14598C12.5487 3.34123 12.5487 3.65781 12.3535 3.85309C12.1582 4.04837 11.8417 4.04839 11.6464 3.85314L9.99997 2.20698V7C9.99997 7.27614 9.77611 7.5 9.49997 7.5C9.22383 7.5 8.99997 7.27614 8.99997 7V2.20711L7.35352 3.85355C7.15826 4.04882 6.84168 4.04882 6.64642 3.85355C6.45115 3.65829 6.45115 3.34171 6.64642 3.14645L9.14642 0.646447ZM9.30857 0.537941L9.85138 0.644319C9.76107 0.555088 9.63696 0.5 9.49997 0.5C9.43217 0.5 9.36753 0.513493 9.30857 0.537941ZM0.999969 5.5C0.723827 5.5 0.499969 5.72386 0.499969 6C0.499969 6.27614 0.723827 6.5 0.999969 6.5H5.49991C5.77605 6.5 5.99991 6.27614 5.99991 6C5.99991 5.72386 5.77605 5.5 5.49991 5.5H0.999969ZM0.499969 2C0.499969 1.72386 0.723827 1.5 0.999969 1.5H4.49991C4.77605 1.5 4.99991 1.72386 4.99991 2C4.99991 2.27614 4.77605 2.5 4.49991 2.5H0.999969C0.723827 2.5 0.499969 2.27614 0.499969 2ZM0.999969 9.5C0.723827 9.5 0.499969 9.72386 0.499969 10C0.499969 10.2761 0.723827 10.5 0.999969 10.5H9.49991C9.77605 10.5 9.99991 10.2761 9.99991 10C9.99991 9.72386 9.77605 9.5 9.49991 9.5H0.999969Z" fill="#A7A7A7"/>
</svg>
