<svg width="36" height="34" viewBox="0 0 36 34" fill="none" xmlns="http://www.w3.org/2000/svg">
<path d="M17.2432 1.00311C17.5232 0.332297 18.4768 0.332298 18.7568 1.00311L23.011 11.1954C23.1291 11.4782 23.3959 11.6714 23.7023 11.6959L34.7447 12.5781C35.4714 12.6361 35.7661 13.5399 35.2124 14.0125L26.7993 21.1939C26.5659 21.3931 26.4639 21.7058 26.5352 22.0037L29.1056 32.7412C29.2748 33.4479 28.5032 34.0064 27.881 33.6277L18.4273 27.8737C18.1649 27.7141 17.8351 27.7141 17.5727 27.8737L8.11895 33.6277C7.49675 34.0064 6.72524 33.4479 6.89441 32.7412L9.46475 22.0037C9.53607 21.7058 9.43412 21.3931 9.20069 21.1939L0.787586 14.0125C0.233873 13.5399 0.528564 12.6361 1.25532 12.5781L12.2977 11.6959C12.6041 11.6714 12.8709 11.4782 12.989 11.1954L17.2432 1.00311Z" fill="#FFBC1F"/>
</svg>
